<svg xmlns="http://www.w3.org/2000/svg" xmlns:xlink="http://www.w3.org/1999/xlink" version="1.1" data-diagram-type="DESCRIPTION" style="width:1108px;height:1056px;background:#FFFFFF;" width="1108px" height="1056px" viewBox="0 0 1108 1056" zoomAndPan="magnify" preserveAspectRatio="none" contentStyleType="text/css"><?plantuml 1.2026.8?><defs/><g font-family="sans-serif" lengthAdjust="spacing"><g class="title" data-source-line="8"><text x="291.529" y="22.995" fill="#000" font-size="14" textLength="518.041" font-weight="700">Deployment: Message Crate from source (developer workstation)</text></g><!--cluster workstation--><g class="cluster" data-qualified-name="workstation" id="ent0001" data-source-line="120"><rect x="7" y="44.297" width="855" height="860.94" fill="#FFF" style="stroke:#A2A2A2;stroke-width:1;"/><text x="331.777" y="61.148" fill="#000" font-size="16" textLength="205.445" font-weight="700">Developer workstation</text><text x="349.712" y="76.061" fill="#000" font-size="12" textLength="169.576">[Linux, macOS, or Windows]</text></g><!--cluster browser--><g class="cluster" data-qualified-name="workstation.browser" id="ent0002" data-source-line="120"><rect x="182" y="103.297" width="234" height="184.78" fill="#FFF" style="stroke:#A2A2A2;stroke-width:1;"/><text x="239.547" y="120.148" fill="#000" font-size="16" textLength="118.906" font-weight="700">Web browser</text><text x="191.759" y="135.061" fill="#000" font-size="12" textLength="214.482">[Chrome, Firefox, Safari, or WebKit]</text></g><!--cluster tauri--><g class="cluster" data-qualified-name="workstation.tauri" id="ent0004" data-source-line="120"><rect x="590" y="111.447" width="248" height="481.42" fill="#FFF" style="stroke:#A2A2A2;stroke-width:1;"/><text x="639.16" y="128.298" fill="#000" font-size="16" textLength="149.68" font-weight="700">Desktop process</text><text x="663.565" y="143.211" fill="#000" font-size="12" textLength="100.869">[cargo tauri dev]</text></g><!--cluster backend--><g class="cluster" data-qualified-name="workstation.backend" id="ent0007" data-source-line="120"><rect x="31" y="335.077" width="535" height="298.08" fill="#FFF" style="stroke:#A2A2A2;stroke-width:1;"/><text x="190.969" y="351.928" fill="#000" font-size="16" textLength="215.063" font-weight="700">Message Crate backend</text><text x="191.695" y="366.841" fill="#000" font-size="12" textLength="213.609">[cargo run -p message-crate-server</text><text x="273.396" y="380.809" fill="#000" font-size="12" textLength="50.209">-- serve]</text></g><!--cluster proc--><g class="cluster" data-qualified-name="workstation.backend.proc" id="ent0008" data-source-line="120"><rect x="55" y="408.077" width="487" height="201.08" fill="#FFF" style="stroke:#A2A2A2;stroke-width:1;"/><text x="231.137" y="424.928" fill="#000" font-size="16" textLength="134.727" font-weight="700">Server process</text><text x="188.862" y="439.841" fill="#000" font-size="12" textLength="219.275">[One OS process on 127.0.0.1:8080]</text></g><!--cluster fs--><g class="cluster" data-qualified-name="workstation.fs" id="ent0011" data-source-line="120"><rect x="43" y="680.157" width="709" height="201.08" fill="#FFF" style="stroke:#A2A2A2;stroke-width:1;"/><text x="348.801" y="697.008" fill="#000" font-size="16" textLength="97.398" font-weight="700">Filesystem</text><text x="322.893" y="711.921" fill="#000" font-size="12" textLength="149.215">[Repo working directory]</text></g><!--entity spa--><g class="entity" data-qualified-name="workstation.browser.spa" id="ent0003" data-source-line="76"><rect x="198" y="154.297" width="201.993" height="117.781" fill="#438DD5" style="stroke:#3C7FC0;stroke-width:0.5;"/><text x="256.743" y="179.148" fill="#FFF" font-size="16" textLength="84.508" font-weight="700">Webpage</text><text x="263.688" y="194.061" fill="#FFF" font-size="12" textLength="39.059" font-style="italic">[React</text><text x="302.747" y="194.061" fill="#FFF" font-size="12" font-style="italic"> </text><text x="306.561" y="194.061" fill="#FFF" font-size="12" textLength="27.744" font-style="italic">SPA]</text><text x="296.771" y="209.886" fill="#FFF" font-size="14"> </text><text x="208" y="226.183" fill="#FFF" font-size="14" textLength="28.246">GET</text><text x="236.246" y="226.183" fill="#FFF" font-size="14"> </text><text x="240.696" y="226.183" fill="#FFF" font-size="14">/</text><text x="245.413" y="226.183" fill="#FFF" font-size="14"> </text><text x="249.863" y="226.183" fill="#FFF" font-size="14" textLength="32.888">from</text><text x="282.751" y="226.183" fill="#FFF" font-size="14"> </text><text x="287.201" y="226.183" fill="#FFF" font-size="14" textLength="22.976">the</text><text x="310.177" y="226.183" fill="#FFF" font-size="14"> </text><text x="314.627" y="226.183" fill="#FFF" font-size="14" textLength="48.768">server.</text><text x="363.395" y="226.183" fill="#FFF" font-size="14"> </text><text x="367.845" y="226.183" fill="#FFF" font-size="14" textLength="22.148">API</text><text x="211.449" y="242.479" fill="#FFF" font-size="14" textLength="31.35">calls</text><text x="242.798" y="242.479" fill="#FFF" font-size="14"> </text><text x="247.249" y="242.479" fill="#FFF" font-size="14" textLength="17.452">go</text><text x="264.701" y="242.479" fill="#FFF" font-size="14"> </text><text x="269.151" y="242.479" fill="#FFF" font-size="14" textLength="14.055">to</text><text x="283.206" y="242.479" fill="#FFF" font-size="14"> </text><text x="287.656" y="242.479" fill="#FFF" font-size="14" textLength="22.976">the</text><text x="310.631" y="242.479" fill="#FFF" font-size="14"> </text><text x="315.082" y="242.479" fill="#FFF" font-size="14" textLength="22.148">API</text><text x="337.23" y="242.479" fill="#FFF" font-size="14"> </text><text x="341.68" y="242.479" fill="#FFF" font-size="14" textLength="17.438">on</text><text x="359.119" y="242.479" fill="#FFF" font-size="14"> </text><text x="363.569" y="242.479" fill="#FFF" font-size="14" textLength="22.976">the</text><text x="255.554" y="258.776" fill="#FFF" font-size="14" textLength="38.124">same</text><text x="293.678" y="258.776" fill="#FFF" font-size="14"> </text><text x="298.128" y="258.776" fill="#FFF" font-size="14" textLength="44.311">origin.</text></g><!--entity desktop--><g class="entity" data-qualified-name="workstation.tauri.desktop" id="ent0005" data-source-line="76"><rect x="605.96" y="162.447" width="216.075" height="101.484" fill="#438DD5" style="stroke:#3C7FC0;stroke-width:0.5;"/><text x="656.373" y="187.298" fill="#FFF" font-size="16" textLength="74.391" font-weight="700">Desktop</text><text x="730.763" y="187.298" fill="#FFF" font-size="16" font-weight="700"> </text><text x="736.334" y="187.298" fill="#FFF" font-size="16" textLength="35.289" font-weight="700">App</text><text x="639.443" y="202.211" fill="#FFF" font-size="12" textLength="35.238" font-style="italic">[Tauri</text><text x="674.681" y="202.211" fill="#FFF" font-size="12" font-style="italic"> </text><text x="678.496" y="202.211" fill="#FFF" font-size="12" textLength="14.736" font-style="italic">v2</text><text x="693.232" y="202.211" fill="#FFF" font-size="12" font-style="italic"> </text><text x="697.046" y="202.211" fill="#FFF" font-size="12" textLength="37.482" font-style="italic">native</text><text x="734.529" y="202.211" fill="#FFF" font-size="12" font-style="italic"> </text><text x="738.343" y="202.211" fill="#FFF" font-size="12" textLength="50.209" font-style="italic">window]</text><text x="711.773" y="218.036" fill="#FFF" font-size="14"> </text><text x="615.96" y="234.333" fill="#FFF" font-size="14" textLength="50.142">Extract</text><text x="666.102" y="234.333" fill="#FFF" font-size="14"> </text><text x="670.552" y="234.333" fill="#FFF" font-size="14" textLength="26.339">and</text><text x="696.891" y="234.333" fill="#FFF" font-size="14"> </text><text x="701.341" y="234.333" fill="#FFF" font-size="14" textLength="54.53">Format.</text><text x="755.871" y="234.333" fill="#FFF" font-size="14"> </text><text x="760.321" y="234.333" fill="#FFF" font-size="14" textLength="14.376">UI</text><text x="774.697" y="234.333" fill="#FFF" font-size="14"> </text><text x="779.148" y="234.333" fill="#FFF" font-size="14" textLength="32.888">from</text><text x="632.089" y="250.629" fill="#FFF" font-size="14" textLength="32.02">Vite,</text><text x="664.109" y="250.629" fill="#FFF" font-size="14"> </text><text x="668.559" y="250.629" fill="#FFF" font-size="14" textLength="31.534">data</text><text x="700.093" y="250.629" fill="#FFF" font-size="14"> </text><text x="704.543" y="250.629" fill="#FFF" font-size="14" textLength="32.888">from</text><text x="737.431" y="250.629" fill="#FFF" font-size="14"> </text><text x="741.881" y="250.629" fill="#FFF" font-size="14" textLength="22.976">the</text><text x="764.857" y="250.629" fill="#FFF" font-size="14"> </text><text x="769.307" y="250.629" fill="#FFF" font-size="14" textLength="26.599">API.</text></g><!--entity vite--><g class="entity" data-qualified-name="workstation.tauri.vite" id="ent0006" data-source-line="76"><rect x="606.54" y="475.377" width="212.917" height="101.484" fill="#438DD5" style="stroke:#3C7FC0;stroke-width:0.5;"/><text x="694.815" y="500.228" fill="#FFF" font-size="16" textLength="36.367" font-weight="700">Vite</text><text x="637.919" y="515.141" fill="#FFF" font-size="12" textLength="53.215" font-style="italic">[Node.js,</text><text x="691.134" y="515.141" fill="#FFF" font-size="12" font-style="italic"> </text><text x="694.949" y="515.141" fill="#FFF" font-size="12" textLength="93.129" font-style="italic">localhost:5173]</text><text x="710.773" y="530.966" fill="#FFF" font-size="14"> </text><text x="629.163" y="547.263" fill="#FFF" font-size="14" textLength="27.679">Dev</text><text x="656.841" y="547.263" fill="#FFF" font-size="14"> </text><text x="661.291" y="547.263" fill="#FFF" font-size="14" textLength="44.317">server</text><text x="705.609" y="547.263" fill="#FFF" font-size="14"> </text><text x="710.059" y="547.263" fill="#FFF" font-size="14" textLength="19.25">for</text><text x="729.309" y="547.263" fill="#FFF" font-size="14"> </text><text x="733.759" y="547.263" fill="#FFF" font-size="14" textLength="22.976">the</text><text x="756.735" y="547.263" fill="#FFF" font-size="14"> </text><text x="761.185" y="547.263" fill="#FFF" font-size="14" textLength="35.649">Tauri</text><text x="616.54" y="563.559" fill="#FFF" font-size="14" textLength="69.323">WebView.</text><text x="685.863" y="563.559" fill="#FFF" font-size="14"> </text><text x="690.313" y="563.559" fill="#FFF" font-size="14" textLength="47.448">Serves</text><text x="737.762" y="563.559" fill="#FFF" font-size="14"> </text><text x="742.212" y="563.559" fill="#FFF" font-size="14" textLength="33.667">web/</text><text x="775.879" y="563.559" fill="#FFF" font-size="14"> </text><text x="780.329" y="563.559" fill="#FFF" font-size="14" textLength="29.128">live.</text></g><!--entity web--><g class="entity" data-qualified-name="workstation.backend.proc.web" id="ent0009" data-source-line="76"><rect x="317.93" y="467.227" width="208.139" height="117.781" fill="#438DD5" style="stroke:#3C7FC0;stroke-width:0.5;"/><text x="402.023" y="492.078" fill="#FFF" font-size="16" textLength="39.953" font-weight="700">Web</text><text x="383.916" y="506.991" fill="#FFF" font-size="12" textLength="35.602" font-style="italic">[HTTP</text><text x="419.518" y="506.991" fill="#FFF" font-size="12" font-style="italic"> </text><text x="423.332" y="506.991" fill="#FFF" font-size="12" textLength="24.211" font-style="italic">GET</text><text x="447.543" y="506.991" fill="#FFF" font-size="12" font-style="italic"> </text><text x="451.358" y="506.991" fill="#FFF" font-size="12" textLength="8.725" font-style="italic">/]</text><text x="419.774" y="522.816" fill="#FFF" font-size="14"> </text><text x="346.79" y="539.113" fill="#FFF" font-size="14" textLength="54.626">Returns</text><text x="401.416" y="539.113" fill="#FFF" font-size="14"> </text><text x="405.867" y="539.113" fill="#FFF" font-size="14" textLength="22.976">the</text><text x="428.842" y="539.113" fill="#FFF" font-size="14"> </text><text x="433.292" y="539.113" fill="#FFF" font-size="14" textLength="63.916">webpage</text><text x="327.93" y="555.409" fill="#FFF" font-size="14" textLength="64.066">compiled</text><text x="391.996" y="555.409" fill="#FFF" font-size="14"> </text><text x="396.447" y="555.409" fill="#FFF" font-size="14" textLength="32.888">from</text><text x="429.334" y="555.409" fill="#FFF" font-size="14"> </text><text x="433.784" y="555.409" fill="#FFF" font-size="14" textLength="38.117">web/.</text><text x="471.902" y="555.409" fill="#FFF" font-size="14"> </text><text x="476.352" y="555.409" fill="#FFF" font-size="14" textLength="39.717">Same</text><text x="362.67" y="571.706" fill="#FFF" font-size="14" textLength="39.86">origin</text><text x="402.531" y="571.706" fill="#FFF" font-size="14"> </text><text x="406.981" y="571.706" fill="#FFF" font-size="14" textLength="15.873">as</text><text x="422.854" y="571.706" fill="#FFF" font-size="14"> </text><text x="427.304" y="571.706" fill="#FFF" font-size="14" textLength="22.976">the</text><text x="450.28" y="571.706" fill="#FFF" font-size="14"> </text><text x="454.73" y="571.706" fill="#FFF" font-size="14" textLength="26.599">API.</text></g><!--entity api--><g class="entity" data-qualified-name="workstation.backend.proc.api" id="ent0010" data-source-line="76"><rect x="70.98" y="459.077" width="212.049" height="134.078" fill="#438DD5" style="stroke:#3C7FC0;stroke-width:0.5;"/><text x="161.973" y="483.928" fill="#FFF" font-size="16" textLength="30.063" font-weight="700">API</text><text x="145.463" y="498.841" fill="#FFF" font-size="12" textLength="35.602" font-style="italic">[HTTP</text><text x="181.065" y="498.841" fill="#FFF" font-size="12" font-style="italic"> </text><text x="184.879" y="498.841" fill="#FFF" font-size="12" textLength="23.666" font-style="italic">API]</text><text x="174.779" y="514.666" fill="#FFF" font-size="14"> </text><text x="101.078" y="530.963" fill="#FFF" font-size="14" textLength="37.263">Auth,</text><text x="138.34" y="530.963" fill="#FFF" font-size="14"> </text><text x="142.791" y="530.963" fill="#FFF" font-size="14" textLength="50.675">import,</text><text x="193.465" y="530.963" fill="#FFF" font-size="14"> </text><text x="197.916" y="530.963" fill="#FFF" font-size="14" textLength="55.016">browse,</text><text x="80.98" y="547.259" fill="#FFF" font-size="14" textLength="50.046">export,</text><text x="131.026" y="547.259" fill="#FFF" font-size="14"> </text><text x="135.476" y="547.259" fill="#FFF" font-size="14" textLength="49.014">assets.</text><text x="184.49" y="547.259" fill="#FFF" font-size="14"> </text><text x="188.94" y="547.259" fill="#FFF" font-size="14" textLength="35.041">Used</text><text x="223.981" y="547.259" fill="#FFF" font-size="14"> </text><text x="228.431" y="547.259" fill="#FFF" font-size="14" textLength="17.172">by</text><text x="245.603" y="547.259" fill="#FFF" font-size="14"> </text><text x="250.053" y="547.259" fill="#FFF" font-size="14" textLength="22.976">the</text><text x="89.59" y="563.556" fill="#FFF" font-size="14" textLength="56.321">browser</text><text x="145.911" y="563.556" fill="#FFF" font-size="14"> </text><text x="150.361" y="563.556" fill="#FFF" font-size="14" textLength="26.339">and</text><text x="176.7" y="563.556" fill="#FFF" font-size="14"> </text><text x="181.15" y="563.556" fill="#FFF" font-size="14" textLength="22.976">the</text><text x="204.126" y="563.556" fill="#FFF" font-size="14"> </text><text x="208.576" y="563.556" fill="#FFF" font-size="14" textLength="55.843">desktop</text><text x="161.603" y="579.853" fill="#FFF" font-size="14" textLength="30.803">app.</text></g><!--entity web_src--><g class="entity" data-qualified-name="workstation.fs.web_src" id="ent0012" data-source-line="76"><rect x="522.12" y="731.157" width="213.765" height="134.078" fill="#438DD5" style="stroke:#3C7FC0;stroke-width:0.5;"/><text x="607.537" y="756.008" fill="#FFF" font-size="16" textLength="42.93" font-weight="700">web/</text><text x="564.511" y="770.921" fill="#FFF" font-size="12" textLength="39.059" font-style="italic">[React</text><text x="603.57" y="770.921" fill="#FFF" font-size="12" font-style="italic"> </text><text x="607.384" y="770.921" fill="#FFF" font-size="12" font-style="italic">+</text><text x="617.439" y="770.921" fill="#FFF" font-size="12" font-style="italic"> </text><text x="621.253" y="770.921" fill="#FFF" font-size="12" textLength="23.631" font-style="italic">Vite</text><text x="644.884" y="770.921" fill="#FFF" font-size="12" font-style="italic"> </text><text x="648.699" y="770.921" fill="#FFF" font-size="12" textLength="44.795" font-style="italic">source]</text><text x="626.777" y="786.746" fill="#FFF" font-size="14"> </text><text x="532.12" y="803.043" fill="#FFF" font-size="14" textLength="27.569">Vite</text><text x="559.689" y="803.043" fill="#FFF" font-size="14"> </text><text x="564.14" y="803.043" fill="#FFF" font-size="14" textLength="45.855">serves</text><text x="609.995" y="803.043" fill="#FFF" font-size="14"> </text><text x="614.445" y="803.043" fill="#FFF" font-size="14" textLength="25.546">this</text><text x="639.991" y="803.043" fill="#FFF" font-size="14"> </text><text x="644.441" y="803.043" fill="#FFF" font-size="14" textLength="62.938">directory</text><text x="707.38" y="803.043" fill="#FFF" font-size="14"> </text><text x="711.83" y="803.043" fill="#FFF" font-size="14" textLength="14.055">to</text><text x="537.688" y="819.339" fill="#FFF" font-size="14" textLength="40.1">Tauri.</text><text x="577.787" y="819.339" fill="#FFF" font-size="14"> </text><text x="582.238" y="819.339" fill="#FFF" font-size="14" textLength="45.91">Server</text><text x="628.148" y="819.339" fill="#FFF" font-size="14"> </text><text x="632.598" y="819.339" fill="#FFF" font-size="14" textLength="28.246">GET</text><text x="660.844" y="819.339" fill="#FFF" font-size="14"> </text><text x="665.294" y="819.339" fill="#FFF" font-size="14">/</text><text x="670.011" y="819.339" fill="#FFF" font-size="14"> </text><text x="674.461" y="819.339" fill="#FFF" font-size="14" textLength="45.855">serves</text><text x="541.957" y="835.636" fill="#FFF" font-size="14" textLength="22.976">the</text><text x="564.933" y="835.636" fill="#FFF" font-size="14"> </text><text x="569.383" y="835.636" fill="#FFF" font-size="14" textLength="38.124">same</text><text x="607.507" y="835.636" fill="#FFF" font-size="14"> </text><text x="611.957" y="835.636" fill="#FFF" font-size="14" textLength="26.353">app</text><text x="638.309" y="835.636" fill="#FFF" font-size="14"> </text><text x="642.76" y="835.636" fill="#FFF" font-size="14" textLength="37.81">when</text><text x="680.569" y="835.636" fill="#FFF" font-size="14"> </text><text x="685.019" y="835.636" fill="#FFF" font-size="14" textLength="31.028">built</text><text x="589.566" y="851.933" fill="#FFF" font-size="14" textLength="26.817">into</text><text x="616.383" y="851.933" fill="#FFF" font-size="14"> </text><text x="620.833" y="851.933" fill="#FFF" font-size="14" textLength="47.605">static/.</text></g><!--entity db--><g class="entity" data-qualified-name="workstation.fs.db" id="ent0013" data-source-line="80"><path d="M58.83,744.807 C58.83,734.807 165.005,734.807 165.005,734.807 C165.005,734.807 271.18,734.807 271.18,744.807 L271.18,851.588 C271.18,861.588 165.005,861.588 165.005,861.588 C165.005,861.588 58.83,861.588 58.83,851.588 L58.83,744.807" style="stroke:#3C7FC0;stroke-width:0.5;" fill="#438DD5"/><path d="M58.83,744.807 C58.83,754.807 165.005,754.807 165.005,754.807 C165.005,754.807 271.18,754.807 271.18,744.807" style="stroke:#3C7FC0;stroke-width:0.5;" fill="none"/><text x="135.352" y="773.658" fill="#FFF" font-size="16" textLength="59.305" font-weight="700">SQLite</text><text x="92.811" y="788.571" fill="#FFF" font-size="12" textLength="144.387" font-style="italic">[data/messagecrate.db]</text><text x="162.78" y="804.396" fill="#FFF" font-size="14"> </text><text x="94.161" y="820.693" fill="#FFF" font-size="14" textLength="73.104">Messages,</text><text x="167.264" y="820.693" fill="#FFF" font-size="14"> </text><text x="171.714" y="820.693" fill="#FFF" font-size="14" textLength="64.135">contacts,</text><text x="68.83" y="836.989" fill="#FFF" font-size="14" textLength="67.519">accounts.</text><text x="136.349" y="836.989" fill="#FFF" font-size="14"> </text><text x="140.799" y="836.989" fill="#FFF" font-size="14" textLength="79.974">Embedded;</text><text x="220.772" y="836.989" fill="#FFF" font-size="14"> </text><text x="225.223" y="836.989" fill="#FFF" font-size="14" textLength="22.928">not</text><text x="248.15" y="836.989" fill="#FFF" font-size="14"> </text><text x="252.601" y="836.989" fill="#FFF" font-size="14">a</text><text x="102.596" y="853.286" fill="#FFF" font-size="14" textLength="61.811">separate</text><text x="164.407" y="853.286" fill="#FFF" font-size="14"> </text><text x="168.857" y="853.286" fill="#FFF" font-size="14" textLength="58.557">process.</text></g><!--entity data--><g class="entity" data-qualified-name="workstation.fs.data" id="ent0014" data-source-line="76"><rect x="306.56" y="747.457" width="180.884" height="101.484" fill="#438DD5" style="stroke:#3C7FC0;stroke-width:0.5;"/><text x="373.732" y="772.308" fill="#FFF" font-size="16" textLength="46.539" font-weight="700">data/</text><text x="342.87" y="787.221" fill="#FFF" font-size="12" textLength="75.24" font-style="italic">[Attachment</text><text x="418.11" y="787.221" fill="#FFF" font-size="12" font-style="italic"> </text><text x="421.925" y="787.221" fill="#FFF" font-size="12" textLength="29.209" font-style="italic">files]</text><text x="394.777" y="803.046" fill="#FFF" font-size="14"> </text><text x="316.56" y="819.343" fill="#FFF" font-size="14" textLength="46.197">Stored</text><text x="362.757" y="819.343" fill="#FFF" font-size="14"> </text><text x="367.207" y="819.343" fill="#FFF" font-size="14" textLength="88.614">attachments</text><text x="455.822" y="819.343" fill="#FFF" font-size="14"> </text><text x="460.272" y="819.343" fill="#FFF" font-size="14" textLength="17.172">by</text><text x="339.631" y="835.639" fill="#FFF" font-size="14" textLength="55.774">account</text><text x="395.406" y="835.639" fill="#FFF" font-size="14"> </text><text x="399.856" y="835.639" fill="#FFF" font-size="14" textLength="17.438">on</text><text x="417.294" y="835.639" fill="#FFF" font-size="14"> </text><text x="421.745" y="835.639" fill="#FFF" font-size="14" textLength="32.628">disk.</text></g><!--entity backups--><g class="entity" data-qualified-name="backups" id="ent0015" data-source-line="419"><rect x="877.9" y="466.067" width="216.198" height="120.109" fill="#999" style="stroke:#8A8A8A;stroke-width:0.5;"/><text x="900.491" y="490.918" fill="#FFF" font-size="16" textLength="56.352" font-weight="700">Phone</text><text x="956.843" y="490.918" fill="#FFF" font-size="16" font-weight="700"> </text><text x="962.413" y="490.918" fill="#FFF" font-size="16" textLength="65.219" font-weight="700">backup</text><text x="1027.632" y="490.918" fill="#FFF" font-size="16" font-weight="700"> </text><text x="1033.202" y="490.918" fill="#FFF" font-size="16" textLength="38.305" font-weight="700">files</text><text x="983.774" y="507.687" fill="#FFF" font-size="14"> </text><text x="902.96" y="523.984" fill="#FFF" font-size="14" textLength="70.041">Anywhere</text><text x="973.001" y="523.984" fill="#FFF" font-size="14"> </text><text x="977.451" y="523.984" fill="#FFF" font-size="14" textLength="17.438">on</text><text x="994.889" y="523.984" fill="#FFF" font-size="14"> </text><text x="999.339" y="523.984" fill="#FFF" font-size="14" textLength="32.621">local</text><text x="1031.961" y="523.984" fill="#FFF" font-size="14"> </text><text x="1036.411" y="523.984" fill="#FFF" font-size="14" textLength="32.628">disk.</text><text x="890.002" y="540.281" fill="#FFF" font-size="14" textLength="57.736">Desktop</text><text x="947.738" y="540.281" fill="#FFF" font-size="14"> </text><text x="952.189" y="540.281" fill="#FFF" font-size="14" textLength="39.129">reads</text><text x="991.317" y="540.281" fill="#FFF" font-size="14"> </text><text x="995.768" y="540.281" fill="#FFF" font-size="14" textLength="36.613">them</text><text x="1032.381" y="540.281" fill="#FFF" font-size="14"> </text><text x="1036.831" y="540.281" fill="#FFF" font-size="14" textLength="45.165">during</text><text x="887.9" y="556.578" fill="#FFF" font-size="14" textLength="54.592">Extract.</text><text x="942.492" y="556.578" fill="#FFF" font-size="14"> </text><text x="946.942" y="556.578" fill="#FFF" font-size="14" textLength="46.464">Import</text><text x="993.406" y="556.578" fill="#FFF" font-size="14"> </text><text x="997.856" y="556.578" fill="#FFF" font-size="14" textLength="54.975">uploads</text><text x="1052.831" y="556.578" fill="#FFF" font-size="14"> </text><text x="1057.281" y="556.578" fill="#FFF" font-size="14" textLength="26.817">into</text><text x="931.763" y="572.874" fill="#FFF" font-size="14" textLength="61.359">Message</text><text x="993.122" y="572.874" fill="#FFF" font-size="14"> </text><text x="997.572" y="572.874" fill="#FFF" font-size="14" textLength="42.663">Crate.</text></g><!--link spa to web--><g class="link" data-entity-1="ent0003" data-entity-2="ent0009" id="lnk16" data-source-line="1803" data-link-type="dependency"><path d="M331.14,272.567 C336.38,282.937 341.54,293.727 346,304.077 C369.26,358.127 388.174,414.231 402.264,459.331" style="stroke:#C45C26;stroke-width:2.5;" fill="none" id="spa-to-web"/><polygon points="404.65,466.967,405.128,458.436,399.401,460.225,404.65,466.967" fill="#C45C26" style="stroke:#C45C26;stroke-width:2.5;stroke-linejoin:miter;stroke-miterlimit:10;"/><text x="351.9" y="316.216" fill="#C45C26" font-size="12" textLength="26.232" font-weight="700">GET</text><text x="378.132" y="316.216" fill="#C45C26" font-size="12" font-weight="700"> </text><text x="382.31" y="316.216" fill="#C45C26" font-size="12" font-weight="700">/</text></g><!--link spa to api--><g class="link" data-entity-1="ent0003" data-entity-2="ent0010" id="lnk17" data-source-line="1803" data-link-type="dependency"><path d="M262.99,272.217 C257.24,282.627 251.66,293.527 247,304.077 C224.74,354.537 208.385,406.577 196.015,451.237" style="stroke:#0B5CAB;stroke-width:2.5;" fill="none" id="spa-to-api"/><polygon points="193.88,458.947,198.907,452.038,193.124,450.436,193.88,458.947" fill="#0B5CAB" style="stroke:#0B5CAB;stroke-width:2.5;stroke-linejoin:miter;stroke-miterlimit:10;"/><text x="248" y="316.216" fill="#0B5CAB" font-size="12" textLength="22.547" font-weight="700">API</text></g><!--link desktop to vite--><g class="link" data-entity-1="ent0005" data-entity-2="ent0006" id="lnk18" data-source-line="1803" data-link-type="dependency"><path d="M713.84,264.147 C713.65,322.087 713.376,409.037 713.186,467.027" style="stroke:#666;stroke-width:1;" fill="none" id="desktop-to-vite"/><polygon points="713.16,475.027,716.186,467.037,710.186,467.017,713.16,475.027" fill="#666" style="stroke:#666;stroke-width:1;stroke-linejoin:miter;stroke-miterlimit:10;"/><text x="714.7" y="316.216" fill="#666" font-size="12" textLength="39.721" font-weight="700">Loads</text><text x="754.421" y="316.216" fill="#666" font-size="12" font-weight="700"> </text><text x="758.598" y="316.216" fill="#666" font-size="12" textLength="14.209" font-weight="700">UI</text></g><!--link desktop to api--><g class="link" data-entity-1="ent0005" data-entity-2="ent0010" id="lnk19" data-source-line="1803" data-link-type="dependency"><path d="M605.79,249.257 C549.73,266.067 479.82,284.917 416,296.077 C393.6,299.997 333.42,292.257 314,304.077 C257.03,338.787 223.207,399.647 202.227,451.177" style="stroke:#0B5CAB;stroke-width:2.5;" fill="none" id="desktop-to-api"/><polygon points="199.21,458.587,205.005,452.309,199.448,450.046,199.21,458.587" fill="#0B5CAB" style="stroke:#0B5CAB;stroke-width:2.5;stroke-linejoin:miter;stroke-miterlimit:10;"/><text x="315" y="316.216" fill="#0B5CAB" font-size="12" textLength="22.547" font-weight="700">API</text></g><!--link vite to web_src--><g class="link" data-entity-1="ent0006" data-entity-2="ent0012" id="lnk20" data-source-line="1803" data-link-type="dependency"><path d="M697.4,577.287 C683.95,620.537 666.796,675.678 652.046,723.098" style="stroke:#666;stroke-width:1;" fill="none" id="vite-to-web_src"/><polygon points="649.67,730.737,654.911,723.989,649.181,722.207,649.67,730.737" fill="#666" style="stroke:#666;stroke-width:1;stroke-linejoin:miter;stroke-miterlimit:10;"/><text x="674.52" y="661.296" fill="#666" font-size="12" textLength="45.803" font-weight="700">Serves</text><text x="720.323" y="661.296" fill="#666" font-size="12" font-weight="700"> </text><text x="724.5" y="661.296" fill="#666" font-size="12" textLength="24.188" font-weight="700">live</text></g><!--link web to web_src--><g class="link" data-entity-1="ent0009" data-entity-2="ent0012" id="lnk21" data-source-line="1803" data-link-type="dependency"><path d="M466.66,585.387 C499.46,628.187 539.214,680.047 573.364,724.607" style="stroke:#666;stroke-width:1;" fill="none" id="web-to-web_src"/><polygon points="578.23,730.957,575.745,722.782,570.983,726.432,578.23,730.957" fill="#666" style="stroke:#666;stroke-width:1;stroke-linejoin:miter;stroke-miterlimit:10;"/><text x="526.5" y="661.296" fill="#666" font-size="12" textLength="31.652" font-weight="700">Built</text><text x="558.152" y="661.296" fill="#666" font-size="12" font-weight="700"> </text><text x="562.33" y="661.296" fill="#666" font-size="12" textLength="31.77" font-weight="700">copy</text><text x="594.1" y="661.296" fill="#666" font-size="12" font-weight="700"> </text><text x="598.277" y="661.296" fill="#666" font-size="12" textLength="12.656" font-weight="700">in</text><text x="610.934" y="661.296" fill="#666" font-size="12" font-weight="700"> </text><text x="615.111" y="661.296" fill="#666" font-size="12" textLength="42.322" font-weight="700">static/</text></g><!--link api to db--><g class="link" data-entity-1="ent0010" data-entity-2="ent0013" id="lnk22" data-source-line="1803" data-link-type="dependency"><path d="M174.05,593.537 C172.13,636.637 170.005,684.465 168.125,726.755" style="stroke:#666;stroke-width:1;" fill="none" id="api-to-db"/><polygon points="167.77,734.747,171.122,726.888,165.128,726.622,167.77,734.747" fill="#666" style="stroke:#666;stroke-width:1;stroke-linejoin:miter;stroke-miterlimit:10;"/><text x="172.36" y="661.296" fill="#666" font-size="12" textLength="27.586" font-weight="700">sqlx</text></g><!--link api to data--><g class="link" data-entity-1="ent0010" data-entity-2="ent0014" id="lnk23" data-source-line="1803" data-link-type="dependency"><path d="M231.1,593.537 C269.78,641.017 315.957,697.705 351.207,740.975" style="stroke:#666;stroke-width:1;" fill="none" id="api-to-data"/><polygon points="356.26,747.177,353.533,739.08,348.881,742.869,356.26,747.177" fill="#666" style="stroke:#666;stroke-width:1;stroke-linejoin:miter;stroke-miterlimit:10;"/><text x="288" y="661.296" fill="#666" font-size="12" textLength="41.209" font-weight="700">Reads</text><text x="329.209" y="661.296" fill="#666" font-size="12" font-weight="700"> </text><text x="333.387" y="661.296" fill="#666" font-size="12" textLength="25.23" font-weight="700">and</text><text x="358.617" y="661.296" fill="#666" font-size="12" font-weight="700"> </text><text x="362.795" y="661.296" fill="#666" font-size="12" textLength="42.135" font-weight="700">writes</text><text x="404.93" y="661.296" fill="#666" font-size="12" font-weight="700"> </text><text x="409.107" y="661.296" fill="#666" font-size="12" textLength="43.4" font-weight="700">assets</text></g><!--link desktop to backups--><g class="link" data-entity-1="ent0005" data-entity-2="ent0015" id="lnk24" data-source-line="1803" data-link-type="dependency"><path d="M773.59,264.287 C794.77,283.147 818.24,305.307 838,327.077 C877.81,370.937 913.131,418.507 941.451,459.077" style="stroke:#666;stroke-width:1;" fill="none" id="desktop-to-backups"/><polygon points="946.03,465.637,943.911,457.36,938.991,460.794,946.03,465.637" fill="#666" style="stroke:#666;stroke-width:1;stroke-linejoin:miter;stroke-miterlimit:10;"/><text x="829.75" y="316.216" fill="#666" font-size="12" textLength="41.209" font-weight="700">Reads</text><text x="870.959" y="316.216" fill="#666" font-size="12" font-weight="700"> </text><text x="875.137" y="316.216" fill="#666" font-size="12" textLength="44.297" font-weight="700">during</text><text x="919.434" y="316.216" fill="#666" font-size="12" font-weight="700"> </text><text x="923.611" y="316.216" fill="#666" font-size="12" textLength="48.539" font-weight="700">Extract</text></g><g class="legend" data-source-line="1577"><rect x="940.783" y="932.237" width="143.315" height="16.297" fill="none" style="stroke:none;"/><text x="940.783" y="945.232" fill="#000" font-size="14" textLength="57.921" font-weight="700">Legend</text><text x="1003.578" y="945.232" fill="#FFF" font-size="14"> </text><rect x="940.783" y="948.534" width="143.315" height="16.297" fill="#438DD5" style="stroke:none;"/><text x="945.233" y="961.529" fill="#3C7FC0" font-size="14">▯</text><text x="952.937" y="961.529" fill="#FFF" font-size="14"> </text><text x="961.838" y="961.529" fill="#FFF" font-size="14" textLength="66.336">container</text><text x="1032.624" y="961.529" fill="#FFF" font-size="14"> </text><rect x="940.783" y="964.831" width="143.315" height="16.297" fill="#999" style="stroke:none;"/><text x="945.233" y="977.826" fill="#8A8A8A" font-size="14">▯</text><text x="952.937" y="977.826" fill="#FFF" font-size="14"> </text><text x="961.838" y="977.826" fill="#FFF" font-size="14" textLength="113.162">external system</text><text x="1079.45" y="977.826" fill="#FFF" font-size="14"> </text><rect x="940.783" y="981.128" width="143.315" height="16.297" fill="#FFF" style="stroke:none;"/><text x="945.233" y="994.123" fill="#A2A2A2" font-size="14">▯</text><text x="952.937" y="994.123" fill="#FFF" font-size="14"> </text><text x="961.838" y="994.123" fill="#000" font-size="14" textLength="34.938">node</text><text x="1001.226" y="994.123" fill="#FFF" font-size="14"> </text><text x="945.233" y="1010.419" fill="#C45C26" font-size="14">─</text><text x="953.662" y="1010.419" fill="#FFF" font-size="14"> </text><text x="962.562" y="1010.419" fill="#C45C26" font-size="14" textLength="112.636">Web call (GET /)</text><text x="1079.648" y="1010.419" fill="#FFF" font-size="14"> </text><text x="945.233" y="1026.716" fill="#0B5CAB" font-size="14">─</text><text x="953.662" y="1026.716" fill="#FFF" font-size="14"> </text><text x="962.562" y="1026.716" fill="#0B5CAB" font-size="14" textLength="50.654">API call</text><text x="1017.667" y="1026.716" fill="#FFF" font-size="14"> </text><line x1="940.783" y1="932.237" x2="1084.098" y2="932.237" style="stroke:none;"/><line x1="940.783" y1="948.534" x2="1084.098" y2="948.534" style="stroke:none;"/><line x1="940.783" y1="964.831" x2="1084.098" y2="964.831" style="stroke:none;"/><line x1="940.783" y1="981.128" x2="1084.098" y2="981.128" style="stroke:none;"/><line x1="940.783" y1="997.424" x2="1084.098" y2="997.424" style="stroke:none;"/><line x1="940.783" y1="1013.721" x2="1084.098" y2="1013.721" style="stroke:none;"/><line x1="940.783" y1="1030.018" x2="1084.098" y2="1030.018" style="stroke:none;"/><line x1="940.783" y1="932.237" x2="940.783" y2="1030.018" style="stroke:none;"/><line x1="1084.098" y1="932.237" x2="1084.098" y2="1030.018" style="stroke:none;"/></g><?plantuml-src XLLHS-8s47xdLspTUu0fc5nwwTsaamT2ahjCkK03kKoV6DaMeCQML4aEOJhttxihYHWOBZKlMDhzTlVRRzS_2PcNTS5XvPosv_s-OUjqATogpchBJQwauzAbkQhwkcJIrLNPiwueHTOVVkXDwEZXwwXVCUkumQFv5TUbsbJafD6urHeD_Xe_pEQpyMH-DNwyQtTQhK5HtFDonfRjPCspf0ll77znGrKgSv7yFFnmDZpzZKvB8VdnqzbAv4-IMtkHdAPd_fGlkIncY7EHFF8CSbQMqFvyFOD-9-diXcHQ78OykJmR3YuFG-wVlXroCBdr8J5KombNScY8E8UlwCQM78Q6EGuBeogmgZOvXtR1dtcfD3UmLkR9EkQ4aWZIkC_lLC7RExTTIAwEUM5EoKZ8-gKB5Sl7qoue0uz25cfjamxysm9y3d4pWxVSe2kn5jy8QRZ2D7aNReJX2uMOKxPWHWHGdlqXt2icFKDK2aEQJDjg5j0qban8zvpb3gQJ0RtuZWGAt8e31dlc9eKjVnQM2fpoTtIcP31Z5SV0OYbaYXHJmE-je_KuLbEIo91zSag3DYf7zYbqpWo1am4WxJz8lmYEEn03hSbzvXsVJq4YsyySrfvPkhb-SOPAPBA06sKgvb9uk0r5VXCEIIoOOqtHMDYsYltOpzuu8H_2fOBIlsqNIeNSh9HrvsVlF_wQ1054xc213I7Ka1_o_atmTGfJkhM00zQ74lFz7zuobZ-XcX5wNwpnlE7Fr19w6gfWrSl9gXTJwVL2KdlK7aQYZY3QDBZiz6SiEOodsnDg_VlJZ-a9_jwVVphvTBA7kaySLXaqHpXVPhC9U9q5zRdQIEifMWTH0gupBKfUX9OGHSXN8p5WzbYVzaFY6a5qD7aD6VyFQhVgWgYqCguR9weB_2MyCskviwWFY-6pZOyJfyxhXzwZ185flHl_-rlzMw1CaXiiocvm5LUXSgtyVX1o2GMESUwKsVn0zaZ2t1fg3D7HZEqlNi5nNILHdA7BH9Am3JBDhHTX59y9JMYCunnZMR1USGbPBKe7GgAVNs5v_-XON6NjWjex_NCK1uF6gHyLw0MO5hxpKRf81NsuC7tyn_9SrP8elwuoNXIy-1samc75l3Jp6e-AEpwJ56iRqhVN8V2AY8S5qKrdKomVsybUhoorDaOc8HV2FZK3Y2sS-YxDSNFuoQirjM-oKZ9CNAqRy87S85k64uvV104Djkl9S5PuTYiea7piTTn7ATnw4KADKY4Rp_JUU5DEBVmmXgKTfcWxEUySM-B7ZhxGdSPcL_RHWZwemU9rTyP5Dl9X7suFhzy42RwD7kCYenqMBNoUZS6bbr6kz0Oht2efclf8NZtsd_9bxp3qzTwpHvEtDXZOnW4zpBXfKd3OPvfOd7uPFyv7rv-lxwxQdVy0?></g></svg>